<svg width="255" height="63" viewBox="0 0 255 63" fill="none" xmlns="http://www.w3.org/2000/svg">
<path d="M102.191 15.9997H91.8997V11.2119H100.935V7.97478H91.8997V4.02306H101.741V0.72876H88.103V19.344H102.191V15.9997Z" fill="#869AAF"/>
<path d="M109.741 19.8156C111.954 19.8156 113.624 19.0295 114.758 17.4503C115.465 16.4713 115.865 15.4351 115.943 14.3418H112.275C112.196 15.0635 111.982 15.6566 111.632 16.1068C111.276 16.5642 110.683 16.7857 109.834 16.7857C108.642 16.7857 107.836 16.214 107.408 15.0707C107.172 14.4561 107.051 13.6486 107.051 12.641C107.051 11.5834 107.172 10.7331 107.408 10.0971C107.857 8.88939 108.685 8.28913 109.898 8.28913C110.748 8.28913 111.376 8.56782 111.782 9.12521C112.061 9.53967 112.232 10.0042 112.303 10.5115H115.986C115.786 8.54638 115.137 7.1815 114.038 6.40259C112.938 5.63082 111.525 5.23779 109.798 5.23779C107.772 5.23779 106.18 5.89522 105.024 7.21008C103.868 8.52494 103.297 10.3615 103.297 12.7268C103.297 14.8206 103.818 16.5213 104.86 17.8362C105.902 19.151 107.529 19.8156 109.741 19.8156Z" fill="#869AAF"/>
<path d="M123.972 19.8155C126.334 19.8155 128.097 19.1009 129.26 17.6646C130.423 16.2283 131.001 14.5061 131.001 12.4838C131.001 10.4972 130.423 8.775 129.26 7.32437C128.097 5.86659 126.334 5.1377 123.972 5.1377C121.609 5.1377 119.847 5.86659 118.683 7.32437C117.52 8.78215 116.942 10.5043 116.942 12.4838C116.942 14.5061 117.52 16.2283 118.683 17.6646C119.847 19.0938 121.609 19.8155 123.972 19.8155ZM121.531 9.29666C122.102 8.55347 122.908 8.18188 123.957 8.18188C125.007 8.18188 125.813 8.55347 126.377 9.29666C126.941 10.0398 127.219 11.1046 127.219 12.4838C127.219 13.8629 126.933 14.9277 126.377 15.678C125.813 16.4283 125.007 16.7999 123.957 16.7999C122.908 16.7999 122.095 16.4283 121.531 15.678C120.96 14.9277 120.682 13.8629 120.682 12.4838C120.682 11.1046 120.96 10.0398 121.531 9.29666Z" fill="#869AAF"/>
<path d="M136.532 0.72876H132.935V19.3512H136.532V0.72876Z" fill="#869AAF"/>
<path d="M145.489 19.8155C147.851 19.8155 149.614 19.1009 150.777 17.6646C151.94 16.2283 152.518 14.5061 152.518 12.4838C152.518 10.4972 151.94 8.775 150.777 7.32437C149.614 5.86659 147.851 5.1377 145.489 5.1377C143.126 5.1377 141.364 5.86659 140.2 7.32437C139.037 8.78215 138.459 10.5043 138.459 12.4838C138.459 14.5061 139.037 16.2283 140.2 17.6646C141.364 19.1009 143.126 19.8155 145.489 19.8155ZM143.048 9.29666C143.619 8.55347 144.425 8.18188 145.474 8.18188C146.523 8.18188 147.33 8.55347 147.894 9.29666C148.458 10.0398 148.736 11.1046 148.736 12.4838C148.736 13.8629 148.45 14.9277 147.894 15.678C147.33 16.4283 146.523 16.7999 145.474 16.7999C144.425 16.7999 143.612 16.4283 143.048 15.678C142.477 14.9277 142.199 13.8629 142.199 12.4838C142.192 11.1046 142.477 10.0398 143.048 9.29666Z" fill="#869AAF"/>
<path d="M159.491 19.4084C160.633 19.4084 161.567 19.1368 162.281 18.5866C162.674 18.2936 163.045 17.8506 163.394 17.2574V18.1435C163.394 19.4584 163.252 20.3945 162.966 20.9448C162.531 21.8094 161.66 22.2453 160.368 22.2453C159.455 22.2453 158.798 22.081 158.413 21.7523C158.185 21.5665 158.021 21.2663 157.921 20.8447H154.01C154.124 22.2167 154.745 23.2458 155.851 23.9389C156.964 24.6321 158.392 24.9751 160.154 24.9751C163.066 24.9751 165.036 24.2033 166.056 22.6526C166.656 21.7523 166.956 20.4088 166.956 18.6366V5.57377H163.451V7.56035C162.916 6.58849 162.21 5.92392 161.332 5.56662C160.818 5.35939 160.219 5.2522 159.533 5.2522C157.671 5.2522 156.229 5.9525 155.209 7.34597C154.195 8.73943 153.681 10.4616 153.681 12.5054C153.681 14.6277 154.21 16.307 155.266 17.5504C156.308 18.7867 157.721 19.4084 159.491 19.4084ZM157.785 10.1758C158.263 8.98954 159.127 8.39643 160.383 8.39643C161.303 8.39643 162.038 8.73943 162.588 9.4183C163.137 10.0972 163.409 11.0976 163.409 12.3982C163.409 13.7845 163.123 14.7992 162.545 15.4352C161.967 16.0712 161.261 16.3856 160.426 16.3856C159.17 16.3856 158.299 15.8068 157.814 14.642C157.542 14.0203 157.414 13.3057 157.414 12.5054C157.407 11.5835 157.535 10.8046 157.785 10.1758Z" fill="#869AAF"/>
<path d="M173.179 0.614258H169.532V3.93714H173.179V0.614258Z" fill="#869AAF"/>
<path d="M173.179 5.57373H169.532V19.344H173.179V5.57373Z" fill="#869AAF"/>
<path d="M181.628 19.8156C183.841 19.8156 185.511 19.0295 186.646 17.4503C187.352 16.4713 187.752 15.4351 187.83 14.3418H184.162C184.083 15.0635 183.869 15.6566 183.52 16.1068C183.163 16.5642 182.57 16.7857 181.721 16.7857C180.529 16.7857 179.723 16.214 179.295 15.0707C179.059 14.4561 178.938 13.6486 178.938 12.641C178.938 11.5834 179.059 10.7331 179.295 10.0971C179.744 8.88939 180.572 8.28913 181.785 8.28913C182.635 8.28913 183.263 8.56782 183.67 9.12521C183.948 9.53967 184.119 10.0042 184.191 10.5115H187.873C187.673 8.54638 187.024 7.1815 185.925 6.40259C184.826 5.63082 183.413 5.23779 181.686 5.23779C179.659 5.23779 178.067 5.89522 176.911 7.21008C175.755 8.52494 175.184 10.3615 175.184 12.7268C175.184 14.8206 175.705 16.5213 176.747 17.8362C177.789 19.151 179.416 19.8156 181.628 19.8156Z" fill="#869AAF"/>
<path d="M201.804 18.8151C201.568 18.7079 201.39 18.565 201.276 18.4006C201.154 18.2291 201.083 17.9147 201.062 17.4431C201.047 16.8214 201.033 16.2926 201.033 15.8495V9.53246C201.033 7.87459 200.448 6.74553 199.27 6.14527C198.093 5.545 196.751 5.24487 195.238 5.24487C192.912 5.24487 191.277 5.85228 190.321 7.0671C189.721 7.83886 189.386 8.83215 189.308 10.0327H192.776C192.862 9.50388 193.033 9.08226 193.29 8.76784C193.647 8.34623 194.26 8.13899 195.117 8.13899C195.887 8.13899 196.466 8.24618 196.865 8.46056C197.265 8.67494 197.458 9.06797 197.458 9.6325C197.458 10.097 197.201 10.44 196.68 10.6544C196.394 10.783 195.916 10.8831 195.245 10.9688L194.011 11.1189C192.612 11.2975 191.556 11.5905 190.835 12.005C189.522 12.7624 188.865 13.9916 188.865 15.678C188.865 16.9857 189.272 17.9933 190.093 18.7007C190.906 19.4153 191.941 19.7655 193.197 19.7655C194.182 19.7655 195.06 19.544 195.838 19.0938C196.487 18.715 197.065 18.2577 197.565 17.7146C197.593 18.029 197.622 18.3077 197.664 18.5507C197.707 18.7936 197.779 19.058 197.893 19.3367H201.804V18.8151V18.8151ZM197.45 13.9916C197.422 15.1992 197.079 16.0282 196.423 16.4784C195.759 16.9357 195.038 17.1572 194.253 17.1572C193.761 17.1572 193.34 17.0214 192.99 16.7499C192.647 16.4784 192.469 16.0353 192.469 15.4136C192.469 14.7204 192.755 14.2131 193.318 13.8844C193.654 13.6914 194.203 13.5271 194.974 13.3913L195.795 13.2412C196.201 13.1626 196.523 13.084 196.758 12.9983C196.994 12.9125 197.222 12.791 197.458 12.6481V13.9916H197.45Z" fill="#869AAF"/>
<path d="M207.192 0.72876H203.595V19.3512H207.192V0.72876Z" fill="#869AAF"/>
<path d="M223.256 19.8155C224.527 19.8155 225.64 19.5654 226.611 19.0652C227.153 18.7865 227.738 18.3506 228.373 17.7717L229.665 19.351H234.018L230.643 15.3135C231.249 14.5275 231.685 13.8129 231.949 13.1626C232.434 12.0049 232.705 10.8616 232.769 9.72538H229.579C229.572 10.2971 229.487 10.8401 229.315 11.3547C229.151 11.8692 228.916 12.3408 228.609 12.7839L225.94 9.53958C226.953 8.95361 227.717 8.32476 228.245 7.63875C228.766 6.95274 229.03 6.06663 229.03 4.96615C229.03 3.75134 228.595 2.7509 227.724 1.97199C226.853 1.19308 225.747 0.800049 224.413 0.800049C222.95 0.800049 221.758 1.17879 220.837 1.94341C219.916 2.70802 219.46 3.76563 219.46 5.12337C219.46 5.80938 219.61 6.46681 219.902 7.09566C220.195 7.73165 220.616 8.3462 221.151 8.95361L220.759 9.19657C219.495 9.98263 218.589 10.7687 218.032 11.569C217.476 12.3694 217.197 13.3269 217.197 14.4489C217.197 15.8066 217.733 17.0357 218.803 18.1505C219.866 19.2581 221.351 19.8155 223.256 19.8155ZM223.406 3.74419C223.692 3.56554 224.006 3.47979 224.334 3.47979C224.869 3.47979 225.262 3.62986 225.526 3.93713C225.79 4.24441 225.918 4.58742 225.918 4.9733C225.918 5.5021 225.697 6.00232 225.262 6.45252C225.033 6.69548 224.662 6.99561 224.134 7.35291C223.613 6.73121 223.271 6.29531 223.114 6.05234C222.871 5.68075 222.75 5.32345 222.75 4.98759C222.75 4.42306 222.971 4.00859 223.406 3.74419ZM221.208 12.8196C221.501 12.3622 222.107 11.8406 223.014 11.2403L226.489 15.485C226.154 15.8209 225.719 16.121 225.183 16.3926C224.648 16.6641 224.084 16.7999 223.485 16.7999C222.685 16.7999 222.036 16.5426 221.529 16.0281C221.023 15.5136 220.766 14.9491 220.766 14.3345C220.773 13.7771 220.916 13.2769 221.208 12.8196Z" fill="#869AAF"/>
<path d="M102.191 37.2517H91.8997V32.4639H100.935V29.2267H91.8997V25.275H101.741V21.9807H88.103V40.596H102.191V37.2517Z" fill="#869AAF"/>
<path d="M116.642 40.596V31.3277C116.642 29.5984 116.193 28.3621 115.294 27.6189C114.394 26.8757 113.238 26.5042 111.818 26.5042C110.69 26.5042 109.755 26.7828 109.013 27.3402C108.599 27.6547 108.164 28.162 107.707 28.8695V26.8614H104.225V40.596H107.821V33.1428C107.821 32.2924 107.936 31.5921 108.171 31.049C108.621 30.0128 109.456 29.4983 110.662 29.4983C111.647 29.4983 112.318 29.8485 112.667 30.5559C112.86 30.9418 112.953 31.4992 112.953 32.2209V40.596H116.642Z" fill="#869AAF"/>
<path d="M124.229 36.9875L121.367 26.8259H117.328L122.259 40.5962H126.056L131.023 26.8259H127.162L124.229 36.9875Z" fill="#869AAF"/>
<path d="M135.926 21.8665H132.279V25.1893H135.926V21.8665Z" fill="#869AAF"/>
<path d="M135.926 26.8259H132.279V40.5962H135.926V26.8259Z" fill="#869AAF"/>
<path d="M142.163 34.0146C142.163 32.9142 142.299 32.0924 142.577 31.5636C143.076 30.6203 144.047 30.1487 145.489 30.1487C145.596 30.1487 145.738 30.1558 145.917 30.163C146.095 30.1701 146.295 30.1915 146.523 30.213V26.5257C146.366 26.5185 146.259 26.5114 146.217 26.5042C146.174 26.4971 146.117 26.4971 146.045 26.4971C144.968 26.4971 144.097 26.7829 143.419 27.3403C143.005 27.6762 142.52 28.305 141.97 29.2197V26.8186H138.538V40.5961H142.156V34.0146H142.163Z" fill="#869AAF"/>
<path d="M159.391 38.9168C160.554 37.4805 161.132 35.7583 161.132 33.736C161.132 31.7494 160.554 30.0272 159.391 28.5766C158.227 27.1188 156.465 26.3899 154.102 26.3899C151.74 26.3899 149.978 27.1188 148.814 28.5766C147.651 30.0343 147.073 31.7565 147.073 33.736C147.073 35.7583 147.651 37.4805 148.814 38.9168C149.978 40.3531 151.74 41.0677 154.102 41.0677C156.465 41.0677 158.227 40.346 159.391 38.9168ZM156.515 36.9231C155.951 37.6734 155.144 38.045 154.095 38.045C153.046 38.045 152.233 37.6734 151.669 36.9231C151.098 36.1727 150.82 35.108 150.82 33.7288C150.82 32.3496 151.105 31.2849 151.669 30.5417C152.24 29.7985 153.046 29.4269 154.095 29.4269C155.144 29.4269 155.951 29.7985 156.515 30.5417C157.078 31.2849 157.357 32.3496 157.357 33.7288C157.357 35.1151 157.078 36.1727 156.515 36.9231Z" fill="#869AAF"/>
<path d="M171.452 30.5559C171.644 30.9418 171.737 31.4992 171.737 32.2209V40.596H175.42V31.3277C175.42 29.5984 174.97 28.3621 174.071 27.6189C173.172 26.8757 172.016 26.5042 170.595 26.5042C169.468 26.5042 168.533 26.7828 167.791 27.3402C167.377 27.6547 166.941 28.162 166.485 28.8695V26.8614H163.002V40.596H166.599V33.1428C166.599 32.2924 166.713 31.5921 166.949 31.049C167.398 30.0128 168.233 29.4983 169.439 29.4983C170.438 29.4912 171.102 29.8485 171.452 30.5559Z" fill="#869AAF"/>
<path d="M196.78 28.1191C196.301 27.5332 195.766 27.1187 195.174 26.8829C194.581 26.6471 193.989 26.5327 193.382 26.5327C192.476 26.5327 191.648 26.7257 190.913 27.1044C190.214 27.4831 189.629 28.0762 189.158 28.8837C188.886 28.212 188.494 27.6618 187.973 27.2259C187.324 26.7614 186.474 26.5327 185.425 26.5327C184.312 26.5327 183.413 26.8043 182.713 27.3402C182.321 27.6403 181.9 28.1549 181.45 28.8695V26.8614H177.953V40.596H181.6V32.3067C181.6 31.5563 181.7 30.9918 181.893 30.6131C182.242 29.9485 182.934 29.6126 183.962 29.6126C184.847 29.6126 185.439 29.9485 185.739 30.6131C185.91 30.9847 185.989 31.5778 185.989 32.3924V40.596H189.607V32.3996C189.607 31.785 189.707 31.2562 189.9 30.8203C190.278 29.9985 190.963 29.584 191.955 29.584C192.812 29.584 193.404 29.9056 193.718 30.5416C193.889 30.8775 193.968 31.3062 193.968 31.8279V40.596H197.65L197.686 31.9208C197.686 31.0275 197.643 30.3487 197.557 29.8842C197.429 29.1839 197.165 28.5979 196.78 28.1191Z" fill="#869AAF"/>
<path d="M211.774 29.1412C211.146 28.2122 210.353 27.5333 209.397 27.1046C208.441 26.6758 207.363 26.4614 206.164 26.4614C204.152 26.4614 202.51 27.0974 201.247 28.3694C199.984 29.6414 199.356 31.4708 199.356 33.8575C199.356 36.4015 200.055 38.238 201.454 39.3671C202.853 40.4961 204.466 41.0607 206.3 41.0607C208.519 41.0607 210.239 40.3889 211.474 39.0526C212.266 38.2094 212.708 37.3805 212.808 36.5658H209.14C208.926 36.9732 208.676 37.2876 208.398 37.5163C207.884 37.9379 207.22 38.1451 206.4 38.1451C205.629 38.1451 204.965 37.9736 204.416 37.6306C203.509 37.0732 203.031 36.1085 202.974 34.7222H212.987C213.001 33.5359 212.965 32.6213 212.865 31.9924C212.701 30.9134 212.337 29.963 211.774 29.1412ZM203.06 32.3497C203.188 31.4565 203.509 30.7419 204.016 30.2202C204.523 29.6986 205.236 29.4342 206.164 29.4342C207.013 29.4342 207.72 29.6843 208.298 30.1773C208.869 30.6704 209.19 31.3993 209.254 32.3497H203.06Z" fill="#869AAF"/>
<path d="M225.597 27.6189C224.698 26.8757 223.542 26.5042 222.122 26.5042C220.994 26.5042 220.059 26.7828 219.317 27.3402C218.903 27.6547 218.468 28.162 218.011 28.8695V26.8614H214.528V40.596H218.125V33.1428C218.125 32.2924 218.239 31.5921 218.475 31.049C218.924 30.0128 219.759 29.4983 220.966 29.4983C221.95 29.4983 222.621 29.8485 222.971 30.5559C223.164 30.9418 223.256 31.4992 223.256 32.2209V40.596H226.939V31.3277C226.953 29.5984 226.504 28.3621 225.597 27.6189Z" fill="#869AAF"/>
<path d="M233.547 23.1169H229.986V26.9543H228.066V29.5197H229.986V37.9949C229.986 38.8524 230.186 39.4884 230.593 39.9028C231.214 40.5531 232.377 40.8461 234.075 40.7889L235.781 40.7246V38.0306C235.66 38.0377 235.546 38.0449 235.424 38.052C235.303 38.0592 235.189 38.0592 235.075 38.0592C234.339 38.0592 233.904 37.9877 233.761 37.8519C233.619 37.7162 233.547 37.3589 233.547 36.7943V29.5197H235.781V26.9543H233.547V23.1169Z" fill="#869AAF"/>
<path d="M249.077 39.6528C248.955 39.4813 248.884 39.1669 248.863 38.6953C248.848 38.0736 248.834 37.5447 248.834 37.1017V30.7847C248.834 29.1268 248.249 27.9977 247.071 27.3975C245.894 26.7972 244.552 26.4971 243.039 26.4971C240.713 26.4971 239.078 27.1045 238.122 28.3193C237.523 29.0911 237.187 30.0844 237.109 31.2849H240.577C240.663 30.7561 240.834 30.3345 241.091 30.02C241.448 29.5984 242.061 29.3912 242.918 29.3912C243.689 29.3912 244.267 29.4984 244.666 29.7128C245.066 29.9271 245.259 30.3202 245.259 30.8847C245.259 31.3492 245.002 31.6922 244.481 31.9066C244.195 32.0352 243.717 32.1352 243.046 32.221L241.812 32.3711C240.413 32.5497 239.357 32.8427 238.636 33.2572C237.323 34.0146 236.666 35.2437 236.666 36.9302C236.666 38.2379 237.073 39.2455 237.894 39.9529C238.707 40.6675 239.742 41.0177 240.998 41.0177C241.983 41.0177 242.861 40.7962 243.639 40.346C244.288 39.9672 244.866 39.5099 245.366 38.9668C245.394 39.2812 245.423 39.5599 245.466 39.8029C245.508 40.0458 245.58 40.3102 245.694 40.5889H249.605V40.0601C249.376 39.9601 249.198 39.8172 249.077 39.6528ZM245.259 35.2437C245.23 36.4514 244.888 37.2803 244.231 37.7305C243.567 38.1879 242.846 38.4094 242.061 38.4094C241.569 38.4094 241.148 38.2736 240.798 38.0021C240.456 37.7305 240.277 37.2875 240.277 36.6658C240.277 35.9726 240.563 35.4653 241.127 35.1366C241.462 34.9436 242.011 34.7793 242.782 34.6435L243.603 34.4934C244.01 34.4148 244.331 34.3362 244.566 34.2505C244.802 34.1647 245.03 34.0432 245.266 33.9003V35.2437H245.259Z" fill="#869AAF"/>
<path d="M255 21.9807H251.403V40.6031H255V21.9807Z" fill="#869AAF"/>
<path d="M100.835 52.6013C100.121 52.0368 99.0506 51.5866 97.6162 51.2507L94.3547 50.4789C93.0987 50.186 92.2708 49.9287 91.8855 49.7072C91.2788 49.3785 90.9791 48.8854 90.9791 48.2137C90.9791 47.4919 91.286 46.9274 91.8997 46.5201C92.5135 46.1128 93.3342 45.9127 94.3547 45.9127C95.2754 45.9127 96.0461 46.0699 96.667 46.3772C97.5948 46.8488 98.1015 47.642 98.1657 48.7639H101.898C101.827 46.7845 101.099 45.2767 99.6929 44.2334C98.2941 43.19 96.6028 42.6755 94.6188 42.6755C92.2423 42.6755 90.4439 43.2258 89.2164 44.3334C87.9889 45.4339 87.3751 46.8202 87.3751 48.4924C87.3751 50.3217 88.0031 51.6652 89.252 52.5227C89.9943 53.0372 91.3502 53.516 93.3271 53.9519L95.3396 54.3949C96.5171 54.6451 97.3807 54.938 97.923 55.2668C98.4654 55.6026 98.7366 56.0814 98.7366 56.6959C98.7366 57.7464 98.18 58.4681 97.0738 58.854C96.4886 59.0541 95.7321 59.1542 94.7972 59.1542C93.2343 59.1542 92.1281 58.7683 91.4858 58.0037C91.1361 57.5821 90.9006 56.9461 90.7793 56.0957H87.0682C87.0682 58.0322 87.7676 59.5543 89.1735 60.662C90.5795 61.7696 92.4992 62.3198 94.9471 62.3198C97.345 62.3198 99.2005 61.7553 100.514 60.6334C101.827 59.5115 102.483 58.0966 102.483 56.3958C102.498 54.7451 101.941 53.4803 100.835 52.6013Z" fill="#869AAF"/>
<path d="M110.669 47.6421C108.307 47.6421 106.544 48.371 105.381 49.8288C104.218 51.2865 103.639 53.0087 103.639 54.9882C103.639 57.0105 104.218 58.7326 105.381 60.169C106.544 61.6053 108.307 62.3199 110.669 62.3199C113.031 62.3199 114.794 61.6053 115.957 60.169C117.121 58.7326 117.699 57.0105 117.699 54.9882C117.699 53.0016 117.121 51.2794 115.957 49.8288C114.801 48.3638 113.038 47.6421 110.669 47.6421ZM113.081 58.1753C112.517 58.9256 111.711 59.2972 110.662 59.2972C109.613 59.2972 108.799 58.9256 108.235 58.1753C107.665 57.4249 107.386 56.3602 107.386 54.981C107.386 53.6018 107.672 52.5371 108.235 51.7939C108.806 51.0507 109.613 50.6791 110.662 50.6791C111.711 50.6791 112.517 51.0507 113.081 51.7939C113.645 52.5371 113.923 53.6018 113.923 54.981C113.93 56.3673 113.645 57.4249 113.081 58.1753Z" fill="#869AAF"/>
<path d="M123.23 43.2329H119.633V61.8553H123.23V43.2329Z" fill="#869AAF"/>
<path d="M134.548 55.574C134.548 56.4601 134.434 57.1676 134.198 57.7107C133.749 58.704 132.907 59.2042 131.686 59.2042C130.73 59.2042 130.095 58.854 129.767 58.1537C129.581 57.7607 129.488 57.1676 129.488 56.3887V48.0779H125.806V56.3744C125.806 57.9465 126.006 59.1399 126.398 59.9473C127.105 61.4123 128.468 62.1483 130.502 62.1483C131.208 62.1483 131.822 62.0554 132.343 61.8696C132.864 61.6838 133.413 61.3408 133.97 60.8335C134.156 60.6762 134.313 60.4904 134.448 60.2761C134.584 60.0688 134.669 59.9402 134.698 59.8973V61.841H138.195V48.0779H134.548V55.574Z" fill="#869AAF"/>
<path d="M144.982 44.3691H141.421V48.2065H139.501V50.7719H141.421V59.2471C141.421 60.1046 141.621 60.7406 142.027 61.155C142.648 61.8053 143.811 62.0983 145.51 62.0411L147.216 61.9768V59.2828C147.094 59.2899 146.98 59.2971 146.859 59.3042C146.737 59.3114 146.623 59.3114 146.509 59.3114C145.774 59.3114 145.339 59.2399 145.196 59.1041C145.053 58.9684 144.982 58.6111 144.982 58.0465V50.7719H147.216V48.2065H144.982V44.3691V44.3691Z" fill="#869AAF"/>
<path d="M152.661 48.0779H149.014V61.8482H152.661V48.0779Z" fill="#869AAF"/>
<path d="M152.661 43.1187H149.014V46.4415H152.661V43.1187Z" fill="#869AAF"/>
<path d="M161.61 47.6421C159.248 47.6421 157.485 48.371 156.322 49.8288C155.159 51.2865 154.581 53.0087 154.581 54.9882C154.581 57.0105 155.159 58.7326 156.322 60.169C157.485 61.6053 159.248 62.3199 161.61 62.3199C163.972 62.3199 165.735 61.6053 166.898 60.169C168.062 58.7326 168.64 57.0105 168.64 54.9882C168.64 53.0016 168.062 51.2794 166.898 49.8288C165.735 48.3638 163.972 47.6421 161.61 47.6421ZM164.015 58.1753C163.452 58.9256 162.645 59.2972 161.596 59.2972C160.547 59.2972 159.733 58.9256 159.17 58.1753C158.606 57.4249 158.32 56.3602 158.32 54.981C158.32 53.6018 158.606 52.5371 159.17 51.7939C159.74 51.0507 160.547 50.6791 161.596 50.6791C162.645 50.6791 163.452 51.0507 164.015 51.7939C164.579 52.5371 164.857 53.6018 164.857 54.981C164.865 56.3673 164.579 57.4249 164.015 58.1753Z" fill="#869AAF"/>
<path d="M181.578 48.8711C180.679 48.1279 179.523 47.7563 178.103 47.7563C176.975 47.7563 176.04 48.035 175.298 48.5924C174.884 48.9068 174.449 49.4142 173.992 50.1217V48.1136H170.51V61.8554H174.106V54.395C174.106 53.5446 174.221 52.8443 174.456 52.3012C174.906 51.265 175.741 50.7505 176.947 50.7505C177.932 50.7505 178.603 51.1007 178.952 51.8081C179.145 52.194 179.238 52.7514 179.238 53.4731V61.8482H182.92V52.5799C182.927 50.8506 182.478 49.6143 181.578 48.8711Z" fill="#869AAF"/>
<path d="M192.954 53.5661C190.806 53.0945 189.557 52.7586 189.2 52.5657C188.844 52.3799 188.672 52.0798 188.672 51.6653C188.672 51.3366 188.836 51.0507 189.172 50.8078C189.507 50.5648 190.064 50.4433 190.849 50.4433C191.805 50.4433 192.476 50.6863 192.876 51.1794C193.09 51.4509 193.218 51.8154 193.268 52.2799H196.865C196.708 50.5934 196.08 49.4072 195.003 48.7212C193.918 48.0351 192.519 47.6921 190.799 47.6921C188.986 47.6921 187.58 48.1495 186.581 49.0642C185.582 49.9789 185.083 51.0722 185.083 52.3442C185.083 53.4232 185.404 54.245 186.039 54.8167C186.681 55.3955 187.78 55.8814 189.343 56.2673C191.513 56.7818 192.769 57.1463 193.104 57.3535C193.44 57.5607 193.611 57.868 193.611 58.2753C193.611 58.6969 193.404 59.0114 192.983 59.2257C192.562 59.433 191.998 59.5402 191.291 59.5402C190.085 59.5402 189.258 59.2972 188.808 58.8184C188.551 58.5469 188.387 58.0967 188.316 57.4535H184.669C184.669 58.8684 185.183 60.0332 186.217 60.9479C187.252 61.8626 188.851 62.32 191.013 62.32C193.14 62.32 194.71 61.8912 195.723 61.0265C196.737 60.1619 197.243 59.0471 197.243 57.6822C197.243 56.646 196.894 55.7814 196.187 55.0954C195.466 54.4094 194.389 53.902 192.954 53.5661Z" fill="#869AAF"/>
<path d="M82.0012 19.5941C81.6087 17.9076 76.977 17.5718 74.0724 17.5432C71.1678 17.5146 66.893 19.1725 61.3835 20.9447C59.8277 21.4449 52.8767 25.2823 47.931 26.4685C51.9489 24.6034 57.1087 21.9094 61.6262 19.3011C63.8385 18.022 68.5487 12.7268 70.9823 10.5544C73.4159 8.38919 78.0261 3.4942 76.3276 0.885914C74.6291 -1.72237 67.9778 2.18648 66.3435 2.92966C64.7092 3.67999 55.7028 10.8045 54.6965 11.5334C53.6903 12.2623 49.4154 14.3346 46.6892 15.7353C44.0487 17.093 41.765 19.0581 40.4518 20.3801C39.4456 19.2368 38.6177 18.6651 37.7827 18.5293C38.2181 17.3288 38.4607 16.0282 37.8327 15.2422C36.8764 14.0345 36.0057 13.4057 34.7068 14.4061C34.7068 14.4061 33.7791 13.2842 32.8085 13.6415C31.8379 13.9916 31.8665 13.9202 31.1956 14.399C30.5319 14.8706 30.0609 16.1354 30.4962 16.6857C30.4962 16.6857 29.6541 16.8929 29.5257 17.6361C29.4043 18.3793 29.4186 20.6017 30.8245 21.109C31.4383 21.3306 32.1876 21.4735 32.9726 21.4949C32.68 22.6454 33.2296 23.896 33.879 24.9464C31.6666 25.368 28.9333 26.3828 26.8351 28.0192C23.9591 30.263 20.1481 33.3572 18.05 34.4291C15.9518 35.501 7.78751 38.5667 5.31824 40.5104C2.84897 42.4612 -1.06904 46.7702 0.272646 48.3281C1.61433 49.8859 5.49665 49.2785 9.0721 47.9851C12.6475 46.6916 17.8858 45.4768 20.2909 44.5979C22.0536 43.9547 31.7166 37.3304 34.7425 35.1366C32.8799 37.6948 25.0439 43.969 23.4667 45.4197C20.926 47.7635 15.5664 53.5089 14.3746 56.8961C13.1757 60.2761 12.776 62.6057 13.8679 62.9416C14.9598 63.2775 18.1142 62.1627 21.6397 59.6544C25.1652 57.1462 27.142 54.788 29.5685 53.659C31.9949 52.5299 39.1458 46.5844 40.8087 45.191C42.2574 43.9762 42.9211 40.0173 42.9211 36.2371C46.0541 40.8319 50.4074 47.8922 51.5635 49.6644C53.5903 52.78 56.7519 59.3615 57.9437 60.0332C59.7707 61.0622 61.0124 63.1774 61.8617 62.5628C62.8537 61.8483 61.2408 59.8974 61.0624 57.7822C60.9553 56.4959 57.4298 50.5362 55.4958 47.6992C54.354 46.0271 50.1576 38.2808 47.5456 33.7789C49.7723 35.4367 51.014 36.4586 52.8053 36.2942C56.552 35.9584 62.8251 32.9213 65.0518 31.6636C67.2784 30.4059 69.2481 28.3122 69.869 28.2264C70.4827 28.1407 73.9868 25.2823 75.6996 24.3462C77.4124 23.4243 82.3937 21.2805 82.0012 19.5941Z" fill="#869AAF"/>
</svg>
